<svg width="626" height="740" viewBox="0 0 626 740" fill="none" xmlns="http://www.w3.org/2000/svg">
<g filter="url(#filter0_d_383_2368)">
<g clip-path="url(#clip0_383_2368)">
<path d="M28 36C28 27.1635 35.1634 20 44 20H598V704H44C35.1634 704 28 696.837 28 688V36Z" fill="#4C1E9A"/>
<g filter="url(#filter1_g_383_2368)">
<path d="M548.353 472.541H820.663V670.584H548.353V1084H350.31V670.584H78V472.541H350.31V173H548.353V472.541Z" fill="white" fill-opacity="0.05"/>
<path d="M548.854 172.5V472.041H821.163V671.084H548.854V1084.5H349.81V671.084H77.5V472.041H349.81V172.5H548.854Z" stroke="white" stroke-opacity="0.3"/>
</g>
<g filter="url(#filter2_g_383_2368)">
<path d="M281.353 -94.4592H553.663V103.584H281.353V396.5H83.3098V103.584H-189V-94.4592H83.3098V-394H281.353V-94.4592Z" fill="white" fill-opacity="0.05"/>
<path d="M281.854 -394.5V-94.959H554.163V104.084H281.854V397H82.8096V104.084H-189.5V-94.959H82.8096V-394.5H281.854Z" stroke="white" stroke-opacity="0.3"/>
</g>
<path d="M130.665 373L114.177 348.772V347.8H117.777L134.301 372.028V373H130.665ZM114.177 373V347.8H117.777V373H114.177ZM130.665 373V347.8H134.301V373H130.665ZM143.955 373.504C142.731 373.504 141.627 373.264 140.643 372.784C139.683 372.304 138.927 371.644 138.375 370.804C137.823 369.94 137.547 368.956 137.547 367.852C137.547 366.196 138.123 364.876 139.275 363.892C140.427 362.884 142.059 362.296 144.171 362.128L151.155 361.552V364.648L144.783 365.152C143.559 365.248 142.659 365.512 142.083 365.944C141.507 366.376 141.219 366.964 141.219 367.708C141.219 368.428 141.531 369.028 142.155 369.508C142.779 369.964 143.571 370.192 144.531 370.192C145.539 370.192 146.451 369.952 147.267 369.472C148.107 368.992 148.767 368.356 149.247 367.564C149.727 366.748 149.967 365.872 149.967 364.936V361.984C149.967 360.712 149.559 359.668 148.743 358.852C147.951 358.036 146.895 357.628 145.575 357.628C144.471 357.628 143.547 357.892 142.803 358.42C142.083 358.948 141.603 359.644 141.363 360.508H140.967L137.871 359.644C138.351 358.036 139.263 356.752 140.607 355.792C141.951 354.832 143.607 354.352 145.575 354.352C148.095 354.352 150.051 355.096 151.443 356.584C152.835 358.048 153.531 360.112 153.531 362.776V373H150.219V367.744L151.515 368.14C151.227 369.124 150.711 370.024 149.967 370.84C149.247 371.656 148.371 372.304 147.339 372.784C146.307 373.264 145.179 373.504 143.955 373.504ZM163.203 373C161.547 373 160.203 372.472 159.171 371.416C158.163 370.36 157.659 368.932 157.659 367.132V350.104H161.259V366.808C161.259 367.792 161.487 368.524 161.943 369.004C162.423 369.46 163.155 369.688 164.139 369.688H166.155L166.335 370.084V373H163.203ZM154.563 358.204V354.892H166.335V358.204H154.563ZM169.524 373V354.892H173.124V373H169.524ZM171.324 351.868C170.652 351.868 170.088 351.64 169.632 351.184C169.176 350.704 168.948 350.14 168.948 349.492C168.948 348.82 169.176 348.256 169.632 347.8C170.088 347.344 170.652 347.116 171.324 347.116C171.972 347.116 172.524 347.344 172.98 347.8C173.46 348.256 173.7 348.82 173.7 349.492C173.7 350.14 173.46 350.704 172.98 351.184C172.524 351.64 171.972 351.868 171.324 351.868ZM182.228 373L182.48 370.804L188.816 354.892H192.524V355.18L185.216 373H182.228ZM181.688 373L174.38 355.18V354.892H178.088L184.424 370.804L184.676 373H181.688ZM201.884 373.504C200.084 373.504 198.488 373.108 197.096 372.316C195.728 371.5 194.66 370.372 193.892 368.932C193.124 367.492 192.74 365.824 192.74 363.928C192.74 362.032 193.112 360.376 193.856 358.96C194.624 357.52 195.68 356.404 197.024 355.612C198.392 354.796 199.964 354.388 201.74 354.388C203.492 354.388 205.016 354.796 206.312 355.612C207.632 356.428 208.652 357.58 209.372 359.068C210.116 360.532 210.488 362.248 210.488 364.216V364.756L209.948 365.296H194.576V362.128H208.76L206.924 362.848C206.876 361.768 206.612 360.844 206.132 360.076C205.676 359.308 205.064 358.72 204.296 358.312C203.552 357.88 202.712 357.664 201.776 357.664C200.768 357.664 199.844 357.904 199.004 358.384C198.164 358.864 197.504 359.536 197.024 360.4C196.568 361.24 196.34 362.224 196.34 363.352V364.432C196.34 365.536 196.58 366.532 197.06 367.42C197.54 368.284 198.2 368.968 199.04 369.472C199.88 369.976 200.828 370.228 201.884 370.228C202.892 370.228 203.78 369.976 204.548 369.472C205.34 368.944 205.964 368.248 206.42 367.384H206.852L209.768 368.644C209.072 370.156 208.04 371.344 206.672 372.208C205.304 373.072 203.708 373.504 201.884 373.504ZM232.942 373L232.978 372.244L243.418 347.8H246.874V348.556L236.434 373H232.942ZM221.566 373V347.8H225.166V373H221.566ZM232.978 373L222.502 348.556V347.8H225.994L236.434 372.244V373H232.978ZM244.21 373V347.8H247.81V373H244.21ZM260.333 373.504C258.533 373.504 256.937 373.108 255.545 372.316C254.177 371.5 253.109 370.372 252.341 368.932C251.573 367.492 251.189 365.824 251.189 363.928C251.189 362.032 251.561 360.376 252.305 358.96C253.073 357.52 254.129 356.404 255.473 355.612C256.841 354.796 258.413 354.388 260.189 354.388C261.941 354.388 263.465 354.796 264.761 355.612C266.081 356.428 267.101 357.58 267.821 359.068C268.565 360.532 268.937 362.248 268.937 364.216V364.756L268.397 365.296H253.025V362.128H267.209L265.373 362.848C265.325 361.768 265.061 360.844 264.581 360.076C264.125 359.308 263.513 358.72 262.745 358.312C262.001 357.88 261.161 357.664 260.225 357.664C259.217 357.664 258.293 357.904 257.453 358.384C256.613 358.864 255.953 359.536 255.473 360.4C255.017 361.24 254.789 362.224 254.789 363.352V364.432C254.789 365.536 255.029 366.532 255.509 367.42C255.989 368.284 256.649 368.968 257.489 369.472C258.329 369.976 259.277 370.228 260.333 370.228C261.341 370.228 262.229 369.976 262.997 369.472C263.789 368.944 264.413 368.248 264.869 367.384H265.301L268.217 368.644C267.521 370.156 266.489 371.344 265.121 372.208C263.753 373.072 262.157 373.504 260.333 373.504ZM279.606 373.504C277.998 373.504 276.534 373.096 275.214 372.28C273.918 371.44 272.886 370.312 272.118 368.896C271.35 367.456 270.966 365.812 270.966 363.964C270.966 362.092 271.35 360.436 272.118 358.996C272.886 357.556 273.918 356.428 275.214 355.612C276.534 354.796 277.998 354.388 279.606 354.388C280.902 354.388 282.078 354.652 283.134 355.18C284.19 355.708 285.078 356.416 285.798 357.304C286.518 358.168 287.034 359.152 287.346 360.256V367.672C287.034 368.752 286.518 369.736 285.798 370.624C285.078 371.488 284.19 372.184 283.134 372.712C282.078 373.24 280.902 373.504 279.606 373.504ZM280.038 370.156C281.142 370.156 282.114 369.892 282.954 369.364C283.794 368.836 284.454 368.104 284.934 367.168C285.414 366.232 285.654 365.152 285.654 363.928C285.654 362.704 285.414 361.624 284.934 360.688C284.454 359.752 283.794 359.032 282.954 358.528C282.114 358 281.142 357.736 280.038 357.736C278.982 357.736 278.034 358 277.194 358.528C276.378 359.032 275.73 359.752 275.25 360.688C274.794 361.624 274.566 362.704 274.566 363.928C274.566 365.152 274.794 366.232 275.25 367.168C275.73 368.104 276.378 368.836 277.194 369.364C278.034 369.892 278.982 370.156 280.038 370.156ZM285.798 373V366.952L286.518 363.928L285.618 360.904V347.08L289.11 346.648L289.218 346.936V373H285.798ZM293.437 373V354.892H297.037V373H293.437ZM295.237 351.868C294.565 351.868 294.001 351.64 293.545 351.184C293.089 350.704 292.861 350.14 292.861 349.492C292.861 348.82 293.089 348.256 293.545 347.8C294.001 347.344 294.565 347.116 295.237 347.116C295.885 347.116 296.437 347.344 296.893 347.8C297.373 348.256 297.613 348.82 297.613 349.492C297.613 350.14 297.373 350.704 296.893 351.184C296.437 351.64 295.885 351.868 295.237 351.868ZM309.328 373.504C307.504 373.504 305.896 373.108 304.504 372.316C303.112 371.5 302.02 370.372 301.228 368.932C300.46 367.492 300.076 365.824 300.076 363.928C300.076 362.032 300.46 360.376 301.228 358.96C302.02 357.52 303.112 356.404 304.504 355.612C305.896 354.796 307.504 354.388 309.328 354.388C310.744 354.388 312.004 354.628 313.108 355.108C314.236 355.588 315.196 356.296 315.988 357.232C316.78 358.144 317.368 359.272 317.752 360.616L314.692 361.48H314.296C313.912 360.304 313.264 359.38 312.352 358.708C311.464 358.036 310.456 357.7 309.328 357.7C308.176 357.7 307.18 357.964 306.34 358.492C305.5 359.02 304.84 359.752 304.36 360.688C303.904 361.6 303.676 362.68 303.676 363.928C303.676 365.176 303.904 366.268 304.36 367.204C304.84 368.14 305.5 368.872 306.34 369.4C307.18 369.904 308.176 370.156 309.328 370.156C310.144 370.156 310.888 370.012 311.56 369.724C312.232 369.436 312.808 369.016 313.288 368.464C313.792 367.888 314.176 367.204 314.44 366.412H314.836L317.932 367.276C317.5 368.62 316.876 369.76 316.06 370.696C315.244 371.632 314.272 372.34 313.144 372.82C312.04 373.276 310.768 373.504 309.328 373.504ZM326.406 373.504C325.182 373.504 324.078 373.264 323.094 372.784C322.134 372.304 321.378 371.644 320.826 370.804C320.274 369.94 319.998 368.956 319.998 367.852C319.998 366.196 320.574 364.876 321.726 363.892C322.878 362.884 324.51 362.296 326.622 362.128L333.606 361.552V364.648L327.234 365.152C326.01 365.248 325.11 365.512 324.534 365.944C323.958 366.376 323.67 366.964 323.67 367.708C323.67 368.428 323.982 369.028 324.606 369.508C325.23 369.964 326.022 370.192 326.982 370.192C327.99 370.192 328.902 369.952 329.718 369.472C330.558 368.992 331.218 368.356 331.698 367.564C332.178 366.748 332.418 365.872 332.418 364.936V361.984C332.418 360.712 332.01 359.668 331.194 358.852C330.402 358.036 329.346 357.628 328.026 357.628C326.922 357.628 325.998 357.892 325.254 358.42C324.534 358.948 324.054 359.644 323.814 360.508H323.418L320.322 359.644C320.802 358.036 321.714 356.752 323.058 355.792C324.402 354.832 326.058 354.352 328.026 354.352C330.546 354.352 332.502 355.096 333.894 356.584C335.286 358.048 335.982 360.112 335.982 362.776V373H332.67V367.744L333.966 368.14C333.678 369.124 333.162 370.024 332.418 370.84C331.698 371.656 330.822 372.304 329.79 372.784C328.758 373.264 327.63 373.504 326.406 373.504ZM340.359 373V347.08L343.851 346.648L343.959 346.936V373H340.359ZM356.221 373V347.8H359.821V373H356.221ZM358.057 373V369.544H372.601V373H358.057ZM358.057 361.948V358.492H371.701V361.948H358.057ZM358.057 351.256V347.8H372.601V351.256H358.057ZM383.515 373.504C381.907 373.504 380.443 373.096 379.123 372.28C377.827 371.44 376.795 370.312 376.027 368.896C375.259 367.456 374.875 365.812 374.875 363.964C374.875 362.092 375.259 360.436 376.027 358.996C376.795 357.556 377.827 356.428 379.123 355.612C380.443 354.796 381.907 354.388 383.515 354.388C384.811 354.388 385.987 354.652 387.043 355.18C388.099 355.708 388.987 356.416 389.707 357.304C390.427 358.168 390.943 359.152 391.255 360.256V367.672C390.943 368.752 390.427 369.736 389.707 370.624C388.987 371.488 388.099 372.184 387.043 372.712C385.987 373.24 384.811 373.504 383.515 373.504ZM383.947 370.156C385.051 370.156 386.023 369.892 386.863 369.364C387.703 368.836 388.363 368.104 388.843 367.168C389.323 366.232 389.563 365.152 389.563 363.928C389.563 362.704 389.323 361.624 388.843 360.688C388.363 359.752 387.703 359.032 386.863 358.528C386.023 358 385.051 357.736 383.947 357.736C382.891 357.736 381.943 358 381.103 358.528C380.287 359.032 379.639 359.752 379.159 360.688C378.703 361.624 378.475 362.704 378.475 363.928C378.475 365.152 378.703 366.232 379.159 367.168C379.639 368.104 380.287 368.836 381.103 369.364C381.943 369.892 382.891 370.156 383.947 370.156ZM389.707 373V366.952L390.427 363.928L389.527 360.904V347.08L393.019 346.648L393.127 346.936V373H389.707ZM413.726 354.892V373H410.306V368.14L411.278 368.428C410.918 369.46 410.378 370.36 409.658 371.128C408.938 371.872 408.086 372.46 407.102 372.892C406.142 373.3 405.098 373.504 403.97 373.504C402.698 373.504 401.546 373.228 400.514 372.676C399.482 372.1 398.666 371.272 398.066 370.192C397.466 369.088 397.166 367.732 397.166 366.124V354.892H400.766V365.116C400.766 366.316 400.934 367.288 401.27 368.032C401.63 368.776 402.122 369.316 402.746 369.652C403.37 369.964 404.09 370.12 404.906 370.12C405.722 370.12 406.526 369.916 407.318 369.508C408.134 369.1 408.806 368.464 409.334 367.6C409.862 366.736 410.126 365.62 410.126 364.252V354.892H413.726ZM425.964 373.504C424.14 373.504 422.532 373.108 421.14 372.316C419.748 371.5 418.656 370.372 417.864 368.932C417.096 367.492 416.712 365.824 416.712 363.928C416.712 362.032 417.096 360.376 417.864 358.96C418.656 357.52 419.748 356.404 421.14 355.612C422.532 354.796 424.14 354.388 425.964 354.388C427.38 354.388 428.64 354.628 429.744 355.108C430.872 355.588 431.832 356.296 432.624 357.232C433.416 358.144 434.004 359.272 434.388 360.616L431.328 361.48H430.932C430.548 360.304 429.9 359.38 428.988 358.708C428.1 358.036 427.092 357.7 425.964 357.7C424.812 357.7 423.816 357.964 422.976 358.492C422.136 359.02 421.476 359.752 420.996 360.688C420.54 361.6 420.312 362.68 420.312 363.928C420.312 365.176 420.54 366.268 420.996 367.204C421.476 368.14 422.136 368.872 422.976 369.4C423.816 369.904 424.812 370.156 425.964 370.156C426.78 370.156 427.524 370.012 428.196 369.724C428.868 369.436 429.444 369.016 429.924 368.464C430.428 367.888 430.812 367.204 431.076 366.412H431.472L434.568 367.276C434.136 368.62 433.512 369.76 432.696 370.696C431.88 371.632 430.908 372.34 429.78 372.82C428.676 373.276 427.404 373.504 425.964 373.504ZM443.042 373.504C441.818 373.504 440.714 373.264 439.73 372.784C438.77 372.304 438.014 371.644 437.462 370.804C436.91 369.94 436.634 368.956 436.634 367.852C436.634 366.196 437.21 364.876 438.362 363.892C439.514 362.884 441.146 362.296 443.258 362.128L450.242 361.552V364.648L443.87 365.152C442.646 365.248 441.746 365.512 441.17 365.944C440.594 366.376 440.306 366.964 440.306 367.708C440.306 368.428 440.618 369.028 441.242 369.508C441.866 369.964 442.658 370.192 443.618 370.192C444.626 370.192 445.538 369.952 446.354 369.472C447.194 368.992 447.854 368.356 448.334 367.564C448.814 366.748 449.054 365.872 449.054 364.936V361.984C449.054 360.712 448.646 359.668 447.83 358.852C447.038 358.036 445.982 357.628 444.662 357.628C443.558 357.628 442.634 357.892 441.89 358.42C441.17 358.948 440.69 359.644 440.45 360.508H440.054L436.958 359.644C437.438 358.036 438.35 356.752 439.694 355.792C441.038 354.832 442.694 354.352 444.662 354.352C447.182 354.352 449.138 355.096 450.53 356.584C451.922 358.048 452.618 360.112 452.618 362.776V373H449.306V367.744L450.602 368.14C450.314 369.124 449.798 370.024 449.054 370.84C448.334 371.656 447.458 372.304 446.426 372.784C445.394 373.264 444.266 373.504 443.042 373.504ZM462.29 373C460.634 373 459.29 372.472 458.258 371.416C457.25 370.36 456.746 368.932 456.746 367.132V350.104H460.346V366.808C460.346 367.792 460.574 368.524 461.03 369.004C461.51 369.46 462.242 369.688 463.226 369.688H465.242L465.422 370.084V373H462.29ZM453.65 358.204V354.892H465.422V358.204H453.65ZM468.611 373V354.892H472.211V373H468.611ZM470.411 351.868C469.739 351.868 469.175 351.64 468.719 351.184C468.263 350.704 468.035 350.14 468.035 349.492C468.035 348.82 468.263 348.256 468.719 347.8C469.175 347.344 469.739 347.116 470.411 347.116C471.059 347.116 471.611 347.344 472.067 347.8C472.547 348.256 472.787 348.82 472.787 349.492C472.787 350.14 472.547 350.704 472.067 351.184C471.611 351.64 471.059 351.868 470.411 351.868ZM484.394 373.504C482.594 373.504 481.01 373.096 479.642 372.28C478.274 371.464 477.194 370.348 476.402 368.932C475.634 367.492 475.25 365.824 475.25 363.928C475.25 362.056 475.634 360.4 476.402 358.96C477.194 357.52 478.274 356.404 479.642 355.612C481.01 354.796 482.594 354.388 484.394 354.388C486.194 354.388 487.778 354.796 489.146 355.612C490.514 356.404 491.582 357.52 492.35 358.96C493.142 360.4 493.538 362.056 493.538 363.928C493.538 365.824 493.142 367.492 492.35 368.932C491.582 370.372 490.514 371.5 489.146 372.316C487.778 373.108 486.194 373.504 484.394 373.504ZM484.394 370.156C485.498 370.156 486.458 369.904 487.274 369.4C488.114 368.896 488.762 368.176 489.218 367.24C489.698 366.304 489.938 365.212 489.938 363.964C489.938 362.668 489.698 361.564 489.218 360.652C488.762 359.716 488.114 358.996 487.274 358.492C486.458 357.964 485.498 357.7 484.394 357.7C483.29 357.7 482.318 357.964 481.478 358.492C480.662 358.996 480.014 359.716 479.534 360.652C479.078 361.564 478.85 362.656 478.85 363.928C478.85 365.2 479.078 366.304 479.534 367.24C480.014 368.176 480.662 368.896 481.478 369.4C482.318 369.904 483.29 370.156 484.394 370.156ZM496.561 373V354.892H499.981V359.752L499.009 359.428C499.369 358.396 499.909 357.508 500.629 356.764C501.349 355.996 502.189 355.408 503.149 355C504.133 354.592 505.177 354.388 506.281 354.388C507.577 354.388 508.741 354.664 509.773 355.216C510.805 355.768 511.621 356.596 512.221 357.7C512.821 358.78 513.121 360.136 513.121 361.768V373H509.521V362.776C509.521 361.552 509.341 360.58 508.981 359.86C508.621 359.116 508.129 358.576 507.505 358.24C506.905 357.904 506.197 357.736 505.381 357.736C504.565 357.736 503.749 357.94 502.933 358.348C502.141 358.756 501.481 359.392 500.953 360.256C500.425 361.12 500.161 362.248 500.161 363.64V373H496.561Z" fill="#F7F4FB"/>
</g>
</g>
<defs>
<filter id="filter0_d_383_2368" x="0" y="0" width="626" height="740" filterUnits="userSpaceOnUse" color-interpolation-filters="sRGB">
<feFlood flood-opacity="0" result="BackgroundImageFix"/>
<feColorMatrix in="SourceAlpha" type="matrix" values="0 0 0 0 0 0 0 0 0 0 0 0 0 0 0 0 0 0 127 0" result="hardAlpha"/>
<feMorphology radius="3" operator="dilate" in="SourceAlpha" result="effect1_dropShadow_383_2368"/>
<feOffset dy="8"/>
<feGaussianBlur stdDeviation="12.5"/>
<feComposite in2="hardAlpha" operator="out"/>
<feColorMatrix type="matrix" values="0 0 0 0 0 0 0 0 0 0 0 0 0 0 0 0 0 0 0.1 0"/>
<feBlend mode="normal" in2="BackgroundImageFix" result="effect1_dropShadow_383_2368"/>
<feBlend mode="normal" in="SourceGraphic" in2="effect1_dropShadow_383_2368" result="shape"/>
</filter>
<filter id="filter1_g_383_2368" x="53" y="148" width="792.663" height="961" filterUnits="userSpaceOnUse" color-interpolation-filters="sRGB">
<feFlood flood-opacity="0" result="BackgroundImageFix"/>
<feBlend mode="normal" in="SourceGraphic" in2="BackgroundImageFix" result="shape"/>
<feTurbulence type="fractalNoise" baseFrequency="0.5 0.5" numOctaves="3" seed="7328" />
<feDisplacementMap in="shape" scale="48" xChannelSelector="R" yChannelSelector="G" result="displacedImage" width="100%" height="100%" />
<feMerge result="effect1_texture_383_2368">
<feMergeNode in="displacedImage"/>
</feMerge>
</filter>
<filter id="filter2_g_383_2368" x="-214" y="-419" width="792.663" height="840.5" filterUnits="userSpaceOnUse" color-interpolation-filters="sRGB">
<feFlood flood-opacity="0" result="BackgroundImageFix"/>
<feBlend mode="normal" in="SourceGraphic" in2="BackgroundImageFix" result="shape"/>
<feTurbulence type="fractalNoise" baseFrequency="0.5 0.5" numOctaves="3" seed="7328" />
<feDisplacementMap in="shape" scale="48" xChannelSelector="R" yChannelSelector="G" result="displacedImage" width="100%" height="100%" />
<feMerge result="effect1_texture_383_2368">
<feMergeNode in="displacedImage"/>
</feMerge>
</filter>
<clipPath id="clip0_383_2368">
<path d="M28 36C28 27.1635 35.1634 20 44 20H598V704H44C35.1634 704 28 696.837 28 688V36Z" fill="white"/>
</clipPath>
</defs>
</svg>
